<svg preserveAspectRatio="none" width="100%" height="100%" overflow="visible" style="display: block;" viewBox="0 0 12.1397 15.9012" fill="none" xmlns="http://www.w3.org/2000/svg">
<path id="Vector" d="M7.8197 4.83765C7.76323 3.93882 7.00088 3.36 6.02205 3.36C5.13264 3.36 4.26675 3.70823 4.26675 4.58353C4.25734 5.73176 5.58911 6.06588 6.20558 6.24941C9.03382 7.09176 12.1397 7.7647 12.1397 11.1576C12.1397 14.2918 9.49499 15.9012 6.24793 15.9012C3.00088 15.9012 -0.114417 14.1365 0.00322982 10.6682H3.86205C3.94205 11.7271 4.93028 12.6118 6.18676 12.6118C7.11381 12.6118 8.07852 12.1929 8.07852 11.2706C8.07852 9.74588 5.04323 9.81176 2.93029 8.69647C1.19852 7.78353 0.337347 6.29647 0.356171 4.56941C0.356171 1.70353 3.02911 0 6.07382 0C9.31617 0 11.7538 1.84471 11.7303 4.84235H7.81029L7.8197 4.83765Z" fill="var(--fill-0, black)"/>
</svg>
